<svg width="110" height="70" viewBox="0 0 110 70" fill="none" xmlns="http://www.w3.org/2000/svg">
<g filter="url(#filter0_d_134_6)">
<circle cx="55" cy="25" r="25" fill="#5AC8FA"/>
</g>
<path d="M63.7257 23.9781H55.5172V15.7696C55.5172 15.3445 55.1726 15 54.7476 15C54.3226 15 53.9781 15.3445 53.9781 15.7696V23.9781H45.7696C45.3445 23.9781 45 24.3226 45 24.7476C45 25.1726 45.3445 25.5172 45.7696 25.5172H53.9781V33.7257C53.9781 34.1507 54.3226 34.4953 54.7476 34.4953C55.1726 34.4953 55.5172 34.1507 55.5172 33.7257V25.5172H63.7257C64.1507 25.5172 64.4953 25.1726 64.4953 24.7476C64.4953 24.3226 64.1507 23.9781 63.7257 23.9781Z" fill="white" stroke="white"/>
<defs>
<filter id="filter0_d_134_6" x="0" y="-27" width="110" height="110" filterUnits="userSpaceOnUse" color-interpolation-filters="sRGB">
<feFlood flood-opacity="0" result="BackgroundImageFix"/>
<feColorMatrix in="SourceAlpha" type="matrix" values="0 0 0 0 0 0 0 0 0 0 0 0 0 0 0 0 0 0 127 0" result="hardAlpha"/>
<feOffset dy="3"/>
<feGaussianBlur stdDeviation="15"/>
<feColorMatrix type="matrix" values="0 0 0 0 0 0 0 0 0 0 0 0 0 0 0 0 0 0 0.0784314 0"/>
<feBlend mode="normal" in2="BackgroundImageFix" result="effect1_dropShadow_134_6"/>
<feBlend mode="normal" in="SourceGraphic" in2="effect1_dropShadow_134_6" result="shape"/>
</filter>
</defs>
</svg>
