<svg width="48" height="40" viewBox="0 0 48 40" fill="none" xmlns="http://www.w3.org/2000/svg">
<g clip-path="url(#clip0_437_14)">
<path d="M35.5556 40C35.5556 35.8026 29.8703 32.4 22.8571 32.4C15.844 32.4 10.1587 35.8026 10.1587 40M45.7143 32.4009C45.7143 29.2845 42.5801 26.6061 38.0952 25.4333M0 32.4009C0 29.2845 3.13421 26.6061 7.61905 25.4333M38.0952 15.2648C39.654 13.8732 40.6349 11.8509 40.6349 9.6C40.6349 5.40264 37.2238 2 33.0159 2C31.0645 2 29.2845 2.73176 27.9365 3.9352M7.61905 15.2648C6.06032 13.8732 5.07937 11.8509 5.07937 9.6C5.07937 5.40264 8.49053 2 12.6984 2C14.6498 2 16.4298 2.73176 17.7778 3.9352M22.8571 24.8C18.6493 24.8 15.2381 21.3974 15.2381 17.2C15.2381 13.0026 18.6493 9.6 22.8571 9.6C27.065 9.6 30.4762 13.0026 30.4762 17.2C30.4762 21.3974 27.065 24.8 22.8571 24.8Z" stroke="#8F9BB3" stroke-width="2" stroke-linecap="round" stroke-linejoin="round"/>
</g>
<defs>
<clipPath id="clip0_437_14">
<rect width="48" height="40" fill="white"/>
</clipPath>
</defs>
</svg>
